<svg xmlns="http://www.w3.org/2000/svg" xmlns:xlink="http://www.w3.org/1999/xlink" width="2000" zoomAndPan="magnify" viewBox="0 0 1500 1499.999933" height="2000" preserveAspectRatio="xMidYMid meet" version="1.0"><defs><g/><clipPath id="eb5e577312"><rect x="0" width="764" y="0" height="310"/></clipPath><clipPath id="a880aec233"><rect x="0" width="228" y="0" height="267"/></clipPath></defs><g fill="#ffffff" fill-opacity="1"><g transform="translate(975.870597, 830.723764)"><g><path d="M 45.828125 2.390625 C 40.878906 2.390625 35.625 1.859375 30.0625 0.796875 C 24.5 -0.265625 19.289062 -1.722656 14.4375 -3.578125 C 9.582031 -5.429688 5.738281 -7.59375 2.90625 -10.0625 C 2.03125 -10.945312 1.457031 -11.828125 1.1875 -12.703125 C 0.925781 -13.585938 0.972656 -14.914062 1.328125 -16.6875 L 8.734375 -58.265625 C 9.265625 -61.441406 10.679688 -63.03125 12.984375 -63.03125 C 15.097656 -63.03125 16.15625 -61.265625 16.15625 -57.734375 L 16.421875 -47.40625 C 16.773438 -32.570312 19.332031 -21.890625 24.09375 -15.359375 C 28.863281 -8.828125 36.632812 -5.5625 47.40625 -5.5625 C 57.289062 -5.5625 65.5 -9.132812 72.03125 -16.28125 C 78.570312 -23.4375 81.84375 -33.019531 81.84375 -45.03125 C 81.84375 -52.800781 79.722656 -60.921875 75.484375 -69.390625 C 71.242188 -77.867188 65.328125 -86.34375 57.734375 -94.8125 C 48.734375 -104.882812 42.066406 -114.066406 37.734375 -122.359375 C 33.410156 -130.660156 31.25 -139.40625 31.25 -148.59375 C 31.25 -155.832031 33.015625 -162.847656 36.546875 -169.640625 C 40.078125 -176.441406 45.414062 -182.09375 52.5625 -186.59375 C 59.71875 -191.09375 68.859375 -193.34375 79.984375 -193.34375 C 95.347656 -193.34375 107.09375 -189.898438 115.21875 -183.015625 C 117.6875 -181.078125 118.566406 -178.164062 117.859375 -174.28125 L 110.453125 -135.609375 C 109.921875 -132.960938 108.679688 -131.640625 106.734375 -131.640625 C 104.796875 -131.640625 103.648438 -133.140625 103.296875 -136.140625 L 103.03125 -141.703125 C 102.320312 -156.003906 100.332031 -166.90625 97.0625 -174.40625 C 93.800781 -181.914062 87.316406 -185.671875 77.609375 -185.671875 C 70.546875 -185.671875 64.894531 -184.078125 60.65625 -180.890625 C 56.414062 -177.710938 53.320312 -173.785156 51.375 -169.109375 C 49.4375 -164.429688 48.46875 -159.796875 48.46875 -155.203125 C 48.46875 -150.085938 49.171875 -145.1875 50.578125 -140.5 C 51.992188 -135.820312 54.421875 -130.878906 57.859375 -125.671875 C 61.304688 -120.460938 66.035156 -114.148438 72.046875 -106.734375 C 80.515625 -96.671875 87.132812 -87.046875 91.90625 -77.859375 C 96.675781 -68.679688 99.0625 -59.769531 99.0625 -51.125 C 99.0625 -40.695312 96.71875 -31.46875 92.03125 -23.4375 C 87.351562 -15.40625 81.039062 -9.09375 73.09375 -4.5 C 65.15625 0.09375 56.066406 2.390625 45.828125 2.390625 Z M 45.828125 2.390625 "/></g></g></g><g fill="#ffffff" fill-opacity="1"><g transform="translate(1088.168931, 830.723764)"><g><path d="M 37.609375 2.390625 C 27.898438 2.390625 19.863281 -1.625 13.5 -9.65625 C 7.144531 -17.695312 3.96875 -27.988281 3.96875 -40.53125 C 3.96875 -52.351562 5.863281 -63.957031 9.65625 -75.34375 C 13.457031 -86.738281 18.582031 -97.070312 25.03125 -106.34375 C 31.476562 -115.613281 38.628906 -122.984375 46.484375 -128.453125 C 54.335938 -133.929688 62.238281 -136.671875 70.1875 -136.671875 C 78.664062 -136.671875 85.816406 -134.375 91.640625 -129.78125 C 92.523438 -129.070312 93.054688 -128.492188 93.234375 -128.046875 C 93.410156 -127.609375 93.320312 -126.6875 92.96875 -125.28125 L 85.8125 -90.578125 C 85.28125 -88.109375 84.132812 -86.875 82.375 -86.875 C 80.425781 -86.875 79.273438 -88.195312 78.921875 -90.84375 L 77.609375 -109.65625 C 77.078125 -117.769531 75.882812 -123.0625 74.03125 -125.53125 C 72.175781 -128.007812 69.484375 -129.25 65.953125 -129.25 C 61.003906 -129.25 55.96875 -126.820312 50.84375 -121.96875 C 45.726562 -117.113281 41.003906 -110.578125 36.671875 -102.359375 C 32.347656 -94.148438 28.90625 -85.054688 26.34375 -75.078125 C 23.789062 -65.109375 22.515625 -55.003906 22.515625 -44.765625 C 22.515625 -22.515625 29.753906 -11.390625 44.234375 -11.390625 C 51.117188 -11.390625 57.34375 -14.566406 62.90625 -20.921875 C 68.46875 -27.273438 73.628906 -37.164062 78.390625 -50.59375 C 78.921875 -52.351562 80.160156 -53.234375 82.109375 -53.234375 C 83.171875 -53.234375 83.785156 -52.835938 83.953125 -52.046875 C 84.128906 -51.253906 83.957031 -49.707031 83.4375 -47.40625 C 81.664062 -37.695312 78.484375 -29.132812 73.890625 -21.71875 C 69.304688 -14.300781 63.878906 -8.425781 57.609375 -4.09375 C 51.335938 0.226562 44.671875 2.390625 37.609375 2.390625 Z M 37.609375 2.390625 "/></g></g></g><g fill="#ffffff" fill-opacity="1"><g transform="translate(1181.132863, 830.723764)"><g><path d="M 40.78125 2.390625 C 29.832031 2.390625 21.179688 -2.15625 14.828125 -11.25 C 8.472656 -20.34375 5.296875 -32.660156 5.296875 -48.203125 C 5.296875 -59.679688 7.148438 -70.71875 10.859375 -81.3125 C 14.566406 -91.90625 19.46875 -101.347656 25.5625 -109.640625 C 31.65625 -117.941406 38.453125 -124.519531 45.953125 -129.375 C 53.453125 -134.238281 61 -136.671875 68.59375 -136.671875 C 79.539062 -136.671875 88.191406 -132.164062 94.546875 -123.15625 C 100.910156 -114.15625 104.09375 -101.796875 104.09375 -86.078125 C 104.09375 -74.597656 102.238281 -63.5625 98.53125 -52.96875 C 94.820312 -42.375 89.921875 -32.925781 83.828125 -24.625 C 77.734375 -16.332031 70.929688 -9.753906 63.421875 -4.890625 C 55.921875 -0.0351562 48.375 2.390625 40.78125 2.390625 Z M 40.265625 -3.96875 C 45.910156 -3.96875 51.425781 -6.703125 56.8125 -12.171875 C 62.195312 -17.648438 67.097656 -24.890625 71.515625 -33.890625 C 75.929688 -42.898438 79.460938 -52.921875 82.109375 -63.953125 C 84.753906 -74.992188 86.078125 -86.078125 86.078125 -97.203125 C 86.078125 -119.273438 80.335938 -130.3125 68.859375 -130.3125 C 63.390625 -130.3125 57.914062 -127.617188 52.4375 -122.234375 C 46.96875 -116.847656 42.066406 -109.648438 37.734375 -100.640625 C 33.410156 -91.640625 29.925781 -81.617188 27.28125 -70.578125 C 24.632812 -59.546875 23.3125 -48.46875 23.3125 -37.34375 C 23.3125 -15.09375 28.960938 -3.96875 40.265625 -3.96875 Z M 40.265625 -3.96875 "/></g></g></g><g fill="#ffffff" fill-opacity="1"><g transform="translate(1290.782634, 830.723764)"><g><path d="M 16.953125 0 C 14.484375 0 13.507812 -1.144531 14.03125 -3.4375 L 39.203125 -109.125 C 40.085938 -113.007812 40.21875 -116.054688 39.59375 -118.265625 C 38.976562 -120.472656 37.347656 -121.578125 34.703125 -121.578125 C 31.515625 -121.578125 28.023438 -119.234375 24.234375 -114.546875 C 20.441406 -109.867188 16.160156 -101 11.390625 -87.9375 C 10.679688 -85.632812 9.445312 -84.484375 7.6875 -84.484375 C 5.03125 -84.484375 4.320312 -86.070312 5.5625 -89.25 C 9.445312 -101.4375 13.550781 -110.972656 17.875 -117.859375 C 22.195312 -124.742188 26.566406 -129.597656 30.984375 -132.421875 C 35.398438 -135.253906 39.460938 -136.671875 43.171875 -136.671875 C 48.992188 -136.671875 53.140625 -134.503906 55.609375 -130.171875 C 58.085938 -125.847656 58.179688 -118.742188 55.890625 -108.859375 L 52.96875 -96.40625 C 52.789062 -95.175781 53.054688 -94.472656 53.765625 -94.296875 C 54.472656 -94.117188 55.09375 -94.554688 55.625 -95.609375 C 62.332031 -110.972656 68.421875 -121.65625 73.890625 -127.65625 C 79.367188 -133.664062 85.640625 -136.671875 92.703125 -136.671875 C 97.472656 -136.671875 101.046875 -135.390625 103.421875 -132.828125 C 105.804688 -130.265625 107 -126.773438 107 -122.359375 C 107 -117.953125 105.9375 -114.421875 103.8125 -111.765625 C 101.695312 -109.117188 98.960938 -107.796875 95.609375 -107.796875 C 92.785156 -107.796875 90.753906 -108.5 89.515625 -109.90625 C 88.285156 -111.320312 87.359375 -112.957031 86.734375 -114.8125 C 86.117188 -116.664062 85.457031 -118.296875 84.75 -119.703125 C 84.050781 -121.117188 82.90625 -121.828125 81.3125 -121.828125 C 78.664062 -121.828125 75.222656 -118.472656 70.984375 -111.765625 C 66.742188 -105.054688 62.195312 -96.007812 57.34375 -84.625 C 52.488281 -73.238281 47.804688 -60.476562 43.296875 -46.34375 C 38.796875 -32.21875 34.867188 -17.738281 31.515625 -2.90625 C 30.984375 -0.96875 29.75 0 27.8125 0 Z M 16.953125 0 "/></g></g></g><g fill="#ffffff" fill-opacity="1"><g transform="translate(1383.481692, 830.723764)"><g><path d="M 34.171875 2.390625 C 24.804688 2.390625 17.296875 -1.269531 11.640625 -8.59375 C 5.992188 -15.925781 3.171875 -26.304688 3.171875 -39.734375 C 3.171875 -51.378906 5.242188 -62.941406 9.390625 -74.421875 C 13.546875 -85.898438 18.976562 -96.316406 25.6875 -105.671875 C 32.394531 -115.035156 39.765625 -122.539062 47.796875 -128.1875 C 55.835938 -133.84375 63.65625 -136.671875 71.25 -136.671875 C 79.550781 -136.671875 85.507812 -134.679688 89.125 -130.703125 C 92.75 -126.734375 94.5625 -121.394531 94.5625 -114.6875 C 94.5625 -106.738281 91.78125 -98.832031 86.21875 -90.96875 C 80.65625 -83.113281 72.882812 -76.097656 62.90625 -69.921875 C 52.925781 -63.742188 41.226562 -59.15625 27.8125 -56.15625 C 23.925781 -55.269531 21.894531 -53.0625 21.71875 -49.53125 C 21.539062 -48.289062 21.453125 -47.007812 21.453125 -45.6875 C 21.453125 -44.363281 21.453125 -43.082031 21.453125 -41.84375 C 21.453125 -31.78125 23.171875 -24.1875 26.609375 -19.0625 C 30.054688 -13.945312 34.78125 -11.390625 40.78125 -11.390625 C 47.5 -11.390625 53.988281 -14.476562 60.25 -20.65625 C 66.519531 -26.832031 71.773438 -35.570312 76.015625 -46.875 C 76.546875 -48.46875 77.601562 -49.265625 79.1875 -49.265625 C 80.25 -49.265625 80.910156 -48.820312 81.171875 -47.9375 C 81.441406 -47.050781 81.398438 -45.992188 81.046875 -44.765625 C 75.398438 -29.222656 68.554688 -17.476562 60.515625 -9.53125 C 52.484375 -1.582031 43.703125 2.390625 34.171875 2.390625 Z M 24.359375 -66.21875 C 24.015625 -64.976562 24.238281 -63.960938 25.03125 -63.171875 C 25.820312 -62.378906 26.835938 -62.15625 28.078125 -62.5 C 39.023438 -65.507812 48.207031 -70.054688 55.625 -76.140625 C 63.039062 -82.234375 68.644531 -89.078125 72.4375 -96.671875 C 76.238281 -104.265625 78.140625 -111.679688 78.140625 -118.921875 C 78.140625 -126.335938 75.222656 -130.046875 69.390625 -130.046875 C 64.273438 -130.046875 58.710938 -127.039062 52.703125 -121.03125 C 46.703125 -115.03125 41.140625 -107.175781 36.015625 -97.46875 C 30.898438 -87.757812 27.015625 -77.34375 24.359375 -66.21875 Z M 24.359375 -66.21875 "/></g></g></g><g transform="matrix(1, 0, 0, 1, 18, 586)"><g clip-path="url(#eb5e577312)"><g fill="#ffffff" fill-opacity="1"><g transform="translate(0.691765, 239.327154)"><g><path d="M 90.4375 0 L 2.3125 -152.453125 L 42.828125 -152.453125 L 104.5625 -42.265625 L 163.40625 -152.453125 L 198.75 -152.453125 L 114.953125 0 Z M 90.4375 0 "/></g></g></g><g fill="#ffffff" fill-opacity="1"><g transform="translate(187.117645, 239.327154)"><g><path d="M 153.59375 -126.046875 L 73.84375 -126.046875 L 73.84375 -83.65625 L 153.59375 -83.65625 C 159.75 -83.65625 163.957031 -84.539062 166.21875 -86.3125 C 168.476562 -88.09375 169.609375 -91.242188 169.609375 -95.765625 L 169.609375 -114.078125 C 169.609375 -118.503906 168.476562 -121.601562 166.21875 -123.375 C 163.957031 -125.15625 159.75 -126.046875 153.59375 -126.046875 Z M 38.9375 0 L 38.9375 -152.453125 L 169.328125 -152.453125 C 181.441406 -152.453125 190.210938 -150.117188 195.640625 -145.453125 C 201.078125 -140.785156 203.796875 -133.257812 203.796875 -122.875 L 203.796875 -87.109375 C 203.796875 -76.828125 201.078125 -69.328125 195.640625 -64.609375 C 190.210938 -59.898438 181.441406 -57.546875 169.328125 -57.546875 L 149.421875 -57.546875 L 219.796875 0 L 168.890625 0 L 107.453125 -57.546875 L 73.84375 -57.546875 L 73.84375 0 Z M 38.9375 0 "/></g></g></g><g fill="#ffffff" fill-opacity="1"><g transform="translate(403.975075, 239.327154)"><g><path d="M 109.90625 -125.1875 L 109.90625 0 L 74.421875 0 L 74.421875 -125.1875 L 4.46875 -125.1875 L 4.46875 -152.453125 L 180.140625 -152.453125 L 180.140625 -125.1875 Z M 109.90625 -125.1875 "/></g></g></g><g fill="#ffffff" fill-opacity="1"><g transform="translate(573.815029, 239.327154)"><g><path d="M 38.9375 0 L 38.9375 -152.453125 L 74.421875 -152.453125 L 74.421875 -28.703125 L 188.796875 -28.703125 L 188.796875 0 Z M 38.9375 0 "/></g></g></g></g></g><g transform="matrix(1, 0, 0, 1, 782, 608)"><g clip-path="url(#a880aec233)"><g fill="#22c55e" fill-opacity="1"><g transform="translate(62.984105, 209.162711)"><g><path d="M 50.328125 25.765625 L 24.578125 25.765625 C 23.160156 25.765625 22.132812 25.289062 21.5 24.34375 C 20.875 23.394531 20.875 22.289062 21.5 21.03125 L 107.046875 -183.140625 C 107.679688 -184.398438 108.707031 -185.503906 110.125 -186.453125 C 111.539062 -187.398438 112.957031 -187.875 114.375 -187.875 L 140.140625 -187.875 C 141.554688 -187.875 142.578125 -187.398438 143.203125 -186.453125 C 143.835938 -185.503906 143.835938 -184.398438 143.203125 -183.140625 L 57.421875 21.03125 C 56.953125 22.289062 56.007812 23.394531 54.59375 24.34375 C 53.175781 25.289062 51.753906 25.765625 50.328125 25.765625 Z M 50.328125 25.765625 "/></g></g></g><g fill="#22c55e" fill-opacity="1"><g transform="translate(1.232332, 209.162711)"><g><path d="M 50.328125 25.765625 L 24.578125 25.765625 C 23.160156 25.765625 22.132812 25.289062 21.5 24.34375 C 20.875 23.394531 20.875 22.289062 21.5 21.03125 L 107.046875 -183.140625 C 107.679688 -184.398438 108.707031 -185.503906 110.125 -186.453125 C 111.539062 -187.398438 112.957031 -187.875 114.375 -187.875 L 140.140625 -187.875 C 141.554688 -187.875 142.578125 -187.398438 143.203125 -186.453125 C 143.835938 -185.503906 143.835938 -184.398438 143.203125 -183.140625 L 57.421875 21.03125 C 56.953125 22.289062 56.007812 23.394531 54.59375 24.34375 C 53.175781 25.289062 51.753906 25.765625 50.328125 25.765625 Z M 50.328125 25.765625 "/></g></g></g></g></g></svg>